<svg width="48" height="48" viewBox="0 0 48 48" fill="none" xmlns="http://www.w3.org/2000/svg">
<rect width="48" height="48" rx="5" fill="#3077B2"/>
<path d="M14.5867 40.1696V18.5599H7.40397V40.1696H14.5875H14.5867ZM10.9968 15.6099C13.5011 15.6099 15.0602 13.9506 15.0602 11.8768C15.0133 9.75582 13.5011 8.14276 11.0445 8.14276C8.58615 8.14276 6.98059 9.75582 6.98059 11.8766C6.98059 13.9504 8.53909 15.6098 10.9498 15.6098H10.9963L10.9968 15.6099ZM18.5625 40.1696H25.7447V28.1031C25.7447 27.4581 25.7915 26.8114 25.9813 26.3507C26.5003 25.0598 27.6821 23.7234 29.6668 23.7234C32.2652 23.7234 33.3052 25.7049 33.3052 28.6103V40.1696H40.4872V27.7793C40.4872 21.1419 36.9442 18.0533 32.2187 18.0533C28.3443 18.0533 26.6428 20.2187 25.6974 21.6936H25.7452V18.5606H18.5628C18.6566 20.5879 18.5623 40.1704 18.5623 40.1704L18.5625 40.1696Z" fill="white"/>
</svg>
