<svg width="48" height="48" viewBox="0 0 48 48" fill="none" xmlns="http://www.w3.org/2000/svg">
<path d="M43 0H5C2.23858 0 0 2.23858 0 5V43C0 45.7614 2.23858 48 5 48H43C45.7614 48 48 45.7614 48 43V5C48 2.23858 45.7614 0 43 0Z" fill="#212121"/>
<path d="M11.4545 16.0531C11.4946 15.6572 11.3436 15.266 11.048 14.9996L8.0372 11.3725V10.8307H17.3859L24.6119 26.6784L30.9648 10.8307H39.8769V11.3725L37.3026 13.8407C37.0807 14.0099 36.9706 14.288 37.0166 14.5631V32.6984C36.9706 32.9735 37.0807 33.2516 37.3026 33.4208L39.8167 35.889V36.4308H27.1711V35.889L29.7755 33.3606C30.0314 33.1047 30.0314 33.0295 30.0314 32.6382V17.9795L22.7903 36.3705H21.8118L13.3815 17.9795V30.3054C13.3112 30.8236 13.4833 31.3454 13.8481 31.7201L17.2353 35.8288V36.3705H7.63074V35.8288L11.0179 31.7201C11.3801 31.3447 11.5422 30.8195 11.4545 30.3054V16.0531Z" fill="white"/>
</svg>
