<svg width="48" height="48" viewBox="0 0 48 48" fill="none" xmlns="http://www.w3.org/2000/svg">
<path d="M43 0H5C2.23858 0 0 2.23858 0 5V43C0 45.7614 2.23858 48 5 48H43C45.7614 48 48 45.7614 48 43V5C48 2.23858 45.7614 0 43 0Z" fill="#50ABF1"/>
<path d="M6.35918 35.5812C9.55369 37.6072 13.3431 38.7797 17.4052 38.7797C28.8171 38.7797 38.0679 29.5278 38.0679 18.117C38.0679 17.8321 38.0619 17.5493 38.0509 17.2673C38.4637 16.9425 41.0166 14.8964 41.6423 13.581C41.6423 13.581 39.5692 14.4425 37.5402 14.6455C37.5362 14.6455 37.5313 14.6464 37.5273 14.6464C37.5273 14.6464 37.5313 14.6444 37.5382 14.6395C37.7252 14.5146 40.3389 12.7353 40.6928 10.6153C40.6928 10.6153 39.2265 11.398 37.1734 12.0827C36.8335 12.1956 36.4777 12.3066 36.1108 12.4095C34.7874 10.9971 32.9063 10.1155 30.8182 10.1155C26.813 10.1155 23.5675 13.3601 23.5675 17.3622C23.5675 17.927 23.6325 18.4767 23.7554 19.0045C23.1957 18.9815 14.6725 18.5036 8.87414 11.4818C8.87414 11.4818 5.40872 16.2127 10.9392 21.0775C10.9392 21.0775 9.25805 21.0105 7.80761 20.1439C7.80761 20.1439 7.27488 25.8753 13.538 27.3406C13.538 27.3406 12.3056 27.8075 10.3395 27.4746C10.3395 27.4746 11.439 32.1056 17.0036 32.5383C17.0036 32.5383 12.6034 36.5133 6.35718 35.5807L6.35918 35.5812Z" fill="white"/>
</svg>
