<svg width="41" height="41" viewBox="0 0 41 41" fill="none" xmlns="http://www.w3.org/2000/svg">
<path fill-rule="evenodd" clip-rule="evenodd" d="M3.92993 0.0205078H36.0906C38.2512 0.0205078 40.0049 1.76953 40.0103 3.93115V36.1099C40.0049 38.2715 38.2522 40.0205 36.0906 40.0205H3.92993C1.76929 40.0205 0.015625 38.2715 0.0102539 36.1099V3.93115C0.015625 1.76953 1.76929 0.0205078 3.92993 0.0205078ZM33.5361 10.6885C32.7883 9.47412 31.4468 8.6665 29.9167 8.6665H10.0833L9.79858 8.67676C9.12256 8.72168 8.46729 8.92773 7.88721 9.27783C7.5957 9.45361 7.32764 9.66309 7.08789 9.90137C6.85034 10.1372 6.64062 10.4014 6.46387 10.6885L20 19.7124L33.5361 10.6885ZM34.1667 27.0835V13.6748L20.7861 22.5952L20.6218 22.689C20.4282 22.7837 20.2156 22.8325 20 22.8325C19.7844 22.8325 19.5718 22.7837 19.3782 22.689L19.2139 22.5952L5.83325 13.6748V27.0835L5.84033 27.3325C5.90405 28.415 6.37866 29.4316 7.16748 30.1753C7.9563 30.9194 8.99927 31.3335 10.0833 31.3335H29.9167L30.166 31.3262C31.2483 31.2627 32.2651 30.7881 33.0088 29.999C33.7524 29.2104 34.1667 28.1675 34.1667 27.0835Z" fill="#2E3440"/>
</svg>
