<svg width="41" height="41" viewBox="0 0 41 41" fill="none" xmlns="http://www.w3.org/2000/svg">
<path fill-rule="evenodd" clip-rule="evenodd" d="M3.9299 0.0205078H36.0906C38.2513 0.0205078 40.0049 1.76962 40.0103 3.93122V36.1098C40.0049 38.2714 38.2522 40.0205 36.0906 40.0205H3.9299C1.76918 40.0205 0.015611 38.2714 0.0102539 36.1098V3.93122C0.015611 1.76962 1.76918 0.0205078 3.9299 0.0205078ZM12.5051 27.4946V24.3647L6.57267 18.4288L5 19.9895L12.5051 27.4946ZM12.5051 27.4946L20.0102 34.9998L21.5761 33.4356L15.6351 27.4946H12.5051ZM20.0034 4.99976L35 19.9964L33.4359 21.5622L27.5017 15.6315V19.2134L31.6432 23.3549L30.0773 24.919L27.5017 22.3434V24.1429H15.8637V12.5049H17.6563L15.0808 9.92925L16.6466 8.36511L20.7829 12.4981H24.3649L18.4393 6.56561L20.0034 4.99976ZM11.7239 13.281L13.288 11.7151L14.9665 13.3935L13.4023 14.9594L11.7239 13.281ZM25.0472 26.5975L26.6062 25.0333L28.2897 26.71L26.7256 28.2759L25.0472 26.5975ZM8.36535 16.6395L9.93119 15.0737L12.5051 17.6476V20.7793L8.36535 16.6395ZM19.2205 27.4946H22.3522L24.9261 30.0686L23.3603 31.6344L19.2205 27.4946Z" fill="#2E3440"/>
</svg>
