<svg width="41" height="41" viewBox="0 0 41 41" fill="none" xmlns="http://www.w3.org/2000/svg">
<path fill-rule="evenodd" clip-rule="evenodd" d="M36.0906 0.0205078H3.92993C1.76929 0.0205078 0.015625 1.76953 0.0102539 3.93115V36.1099C0.015625 38.2715 1.76929 40.0205 3.92993 40.0205H36.0906C38.2522 40.0205 40.0049 38.2715 40.0103 36.1099V3.93115C40.0049 1.76953 38.2512 0.0205078 36.0906 0.0205078ZM33.2002 6H28.6001L20.9302 14.6279L14.3801 6H4.89014L16.1902 20.7456L5.49023 33H10.0901L18.3901 23.5552L25.6401 33H34.9001L23.1001 17.4575L33.2002 6ZM29.54 30.3101H26.9902L10.3 8.59033H13.04L29.54 30.3101Z" fill="#D8DEE9"/>
</svg>
