<svg width="40" height="40" viewBox="0 0 40 40" fill="none" xmlns="http://www.w3.org/2000/svg">
<path fill-rule="evenodd" clip-rule="evenodd" d="M5 0C2.23858 0 0 2.23858 0 5V35C0 37.7614 2.23858 40 5 40H35C37.7614 40 40 37.7614 40 35V5C40 2.23858 37.7614 0 35 0H5ZM12.1556 15.4666V33.4747H6.16995V15.4666H12.1556ZM12.5501 9.89736C12.5501 11.6255 11.2509 13.0083 9.16401 13.0083L9.16354 13.0081H9.12479C7.11589 13.0081 5.81714 11.6253 5.81714 9.89721C5.81714 8.12986 7.15511 6.78564 9.2037 6.78564C11.2509 6.78564 12.511 8.12986 12.5501 9.89736ZM21.4539 33.4747H15.4687L15.4685 33.4753C15.4685 33.4753 15.5471 17.1566 15.469 15.4672H21.4543V18.0162C22.25 16.7894 23.674 15.0444 26.8489 15.0444C30.7868 15.0444 33.7393 17.6183 33.7393 23.1494V33.4747H27.7543V23.8419C27.7543 21.4208 26.8876 19.7696 24.7223 19.7696C23.0684 19.7696 22.0835 20.8831 21.651 21.9589C21.4929 22.3428 21.4539 22.8817 21.4539 23.4192V33.4747Z" fill="#2E3440"/>
</svg>
