<svg width="40" height="40" viewBox="0 0 40 40" fill="none" xmlns="http://www.w3.org/2000/svg">
<path fill-rule="evenodd" clip-rule="evenodd" d="M5 0H35C37.7614 0 40 2.23858 40 5V35C40 37.7614 37.7614 40 35 40H5C2.23858 40 0 37.7614 0 35V5C0 2.23858 2.23858 0 5 0ZM9.20665 12.4997C9.45296 12.7217 9.57875 13.0477 9.54536 13.3776V25.2545C9.61845 25.683 9.48339 26.1206 9.18155 26.4334L6.35889 29.8573V30.3088H14.3627V29.8573L11.5401 26.4334C11.236 26.1211 11.0926 25.6864 11.1511 25.2545V14.9829L18.1765 30.3088H18.9919L25.0261 14.9829V27.1985C25.0261 27.5246 25.0261 27.5873 24.8129 27.8005L22.6425 29.9075V30.359H33.1805V29.9075L31.0855 27.8506C30.9005 27.7097 30.8088 27.478 30.8471 27.2486V12.136C30.8088 11.9066 30.9005 11.6749 31.0855 11.534L33.2307 9.47713V9.02563H25.8039L20.5099 22.232L14.4882 9.02563H6.69761V9.47713L9.20665 12.4997Z" fill="#D8DEE9"/>
</svg>
