<svg width="40" height="40" viewBox="0 0 40 40" fill="none" xmlns="http://www.w3.org/2000/svg">
<path fill-rule="evenodd" clip-rule="evenodd" d="M5 0H35C37.7614 0 40 2.23858 40 5V35C40 37.7614 37.7614 40 35 40H5C2.23858 40 0 37.7614 0 35V5C0 2.23858 2.23858 0 5 0ZM14.5043 32.3164C11.1192 32.3164 7.96137 31.3394 5.29927 29.651L5.29761 29.6506C10.5028 30.4278 14.1696 27.1153 14.1696 27.1153C9.53247 26.7546 8.61623 22.8955 8.61623 22.8955C10.2547 23.1729 11.2817 22.7839 11.2817 22.7839C6.06236 21.5627 6.5063 16.7866 6.5063 16.7866C7.715 17.5088 9.116 17.5646 9.116 17.5646C4.50723 13.5106 7.39507 9.56819 7.39507 9.56819C12.227 15.4197 19.3297 15.8179 19.7962 15.8371C19.6937 15.3972 19.6396 14.9392 19.6396 14.4685C19.6396 11.1334 22.3442 8.42963 25.6818 8.42963C27.4219 8.42963 28.9895 9.16427 30.0923 10.3413C30.398 10.2555 30.6945 10.163 30.9778 10.0689C32.6887 9.49833 33.9106 8.8461 33.9106 8.8461C33.6157 10.6128 31.4376 12.0955 31.2818 12.1996C31.276 12.2037 31.2727 12.2054 31.2727 12.2054C31.276 12.2054 31.2801 12.2046 31.2835 12.2046C32.9743 12.0354 34.7019 11.3175 34.7019 11.3175C34.1804 12.4136 32.053 14.1188 31.7091 14.3895C31.7182 14.6244 31.7232 14.8601 31.7232 15.0975C31.7232 24.6065 24.0142 32.3164 14.5043 32.3164Z" fill="#2E3440"/>
</svg>
